<svg width="12" height="15" viewBox="0 0 12 15" fill="none" xmlns="http://www.w3.org/2000/svg">
<path d="M11.8929 12.558L7.99994 5.006V1.006H8.99994V0.006H7.99394V0L7.53794 0.005H2.99994V1H3.99994V4.952L0.105936 12.561C0.0302339 12.7133 -0.00535369 12.8825 0.00254287 13.0524C0.0104394 13.2224 0.0615581 13.3875 0.151062 13.5321C0.240567 13.6768 0.365498 13.7962 0.514038 13.8792C0.662579 13.9621 0.829818 14.0057 0.999936 14.006H10.9999C11.1704 14.0058 11.3379 13.9621 11.4867 13.8789C11.6355 13.7958 11.7606 13.676 11.8501 13.5309C11.9395 13.3858 11.9904 13.2203 11.9979 13.05C12.0054 12.8798 11.9693 12.7104 11.8929 12.558ZM4.89294 5.408L4.99994 5.193V1.036L6.99994 1.012V5.007V5.249L7.11094 5.464L8.93694 9.006H3.04894L4.89294 5.408ZM0.999936 13.017L2.54094 10.006H9.45593L11.0029 13.006L0.999936 13.017Z" fill="#C5C5C5"/>
</svg>
