<svg id="Layer_1" data-name="Layer 1" xmlns="http://www.w3.org/2000/svg" viewBox="0 0 180.27 239.95"><defs><style>.cls-1{fill:#d0d0d2;}</style></defs><title>GK-Icons</title><path class="cls-1" d="M177.15,53a36.73,36.73,0,0,0-34.29-23c-1,0-2-.06-3,0-.83.06-1.63.32-2.45.42-11,1.28-19.46,7.07-25.73,15.81a35,35,0,0,0-6.29,25.68,37.26,37.26,0,0,0,10.53,21.8A39.58,39.58,0,0,0,130.49,103c.61.23,1.83,0,1.68,1.39s-.18,2.81-.38,4.2c-1.73,11.66-8.92,18.15-20,20.84-8.89,2.17-18,2.39-27.08,3.43-11.54,1.35-23,2.87-34,7-1.37.52-1.9.3-1.9-1.31q.06-31.87,0-63.74a2.28,2.28,0,0,1,1.87-2.48,35.42,35.42,0,0,0,15.66-10.6A36.14,36.14,0,0,0,75.2,37.53a36.69,36.69,0,0,0-8.58-23.86C58.24,3.41,47.27-.64,34.49.08A34.92,34.92,0,0,0,13.91,8.53C2.85,17.69-1.49,29.54.66,43.28S10.33,67.3,24,72.19a3.19,3.19,0,0,1,2.51,3.55q-.14,44.25,0,88.49c0,2.05-.67,2.89-2.56,3.51A32,32,0,0,0,7.19,180.16c-7.86,11.48-9.44,24-3.92,36.84,5.9,13.77,16.63,21.63,31.57,22.82,14.12,1.12,25.44-4.8,33.77-16,5.79-7.81,7.62-17,6.17-26.48-2-12.92-8.73-22.74-20.61-28.72-2.93-1.47-3-1.84-.47-4.14,3.48-3.14,7.75-4.75,12.18-6a76.64,76.64,0,0,1,13.23-2.13q14.2-1.41,28.34-3.43c8.41-1.2,16.64-3.3,24.14-7.44,14.68-8.09,21.67-20.93,22.87-37.34.19-2.59,0-5.36,3.52-6.52,6.21-2,11-6.24,14.72-11.43C180.93,78.65,182.52,66.11,177.15,53ZM22.77,37.44c.07-7.31,6.64-14.94,14.66-15s15.64,7,15,15c.52,7.33-6.52,14.95-14.53,15S22.69,45.4,22.77,37.44Zm29.67,165c.5,7.3-6.54,14.92-14.57,14.94s-15.2-7-15.1-15c.09-7.3,6.67-14.92,14.7-14.94S53.09,194.49,52.44,202.47ZM143,82.41c-7.91.07-15.76-7-15.06-15.17-.41-7.11,6.45-14.7,14.49-14.78s15.38,6.94,15.18,15.17C157.4,74.73,151,82.33,143,82.41Z"/></svg>