<svg width="16" height="16" viewBox="0 0 16 16" fill="none" xmlns="http://www.w3.org/2000/svg">
<path fill-rule="evenodd" clip-rule="evenodd" d="M7.9921 4.95158C9.13715 4.72301 10 3.71227 10 2.5C10 1.11929 8.88071 0 7.5 0C6.11929 0 5 1.11929 5 2.5C5 3.70665 5.85486 4.71363 6.99198 4.94835C6.97182 6.07267 7.08901 6.86503 7 7.5C6.8869 8.30676 6.55351 8.78817 6.39067 9.04406C6.241 9.27925 6.06628 9.39951 5.80445 9.52707C5.74326 9.55688 5.67215 9.58891 5.59362 9.62428C5.34972 9.73414 5.03424 9.87624 4.72265 10.084C4.1427 10.4706 4.00314 11.1205 3.96967 11.6729C3.95235 11.9585 3.96133 12.2582 3.97308 12.5422L3.98041 12.7126C3.99044 12.9416 4 13.16 4 13.375C4 13.9256 3.93237 14.3146 3.75048 14.5672C3.63441 14.7284 3.42712 14.8918 3 14.963V8.94999C4.14112 8.71835 5 7.70948 5 6.5C5 5.11929 3.88071 4 2.5 4C1.11929 4 0 5.11929 0 6.5C0 7.70948 0.858879 8.71835 2 8.94999V16H3V15.9721C3.70911 15.8883 4.22803 15.6154 4.56202 15.1515C4.94263 14.6229 5 13.9494 5 13.375C5 13.1359 4.9892 12.8899 4.97906 12.6592L4.97223 12.5008C4.96054 12.2184 4.9539 11.9634 4.96783 11.7334C4.99686 11.2545 5.1073 11.0294 5.27735 10.916C5.51472 10.7578 5.71799 10.6662 5.942 10.5653C5.9889 10.5442 6.23594 10.5226 6.28516 10.5H11C11.9023 10.5 12.8341 10.3834 13.4514 9.80125C13.9214 9.35792 14.1296 8.72958 14.1119 7.92456C15.1968 7.65161 16 6.6696 16 5.5C16 4.11929 14.8807 3 13.5 3C12.1193 3 11 4.11929 11 5.5C11 6.74925 11.9163 7.78449 13.1135 7.9703C13.1226 8.56956 12.9606 8.88949 12.7653 9.07375C12.4548 9.36655 11.8866 9.5 11 9.5H7.28365C7.53136 9.07536 7.87644 8.45113 7.99031 7.63883C8.08718 6.94785 7.97176 6.10695 7.9921 4.95158ZM8.75 2.5C8.75 3.19036 8.19035 3.75 7.5 3.75C6.80965 3.75 6.25 3.19036 6.25 2.5C6.25 1.80964 6.80965 1.25 7.5 1.25C8.19035 1.25 8.75 1.80964 8.75 2.5ZM13.5 6.75C14.1904 6.75 14.75 6.19036 14.75 5.5C14.75 4.80964 14.1904 4.25 13.5 4.25C12.8096 4.25 12.25 4.80964 12.25 5.5C12.25 6.19036 12.8096 6.75 13.5 6.75ZM2.5 7.75C3.19035 7.75 3.75 7.19036 3.75 6.5C3.75 5.80964 3.19035 5.25 2.5 5.25C1.80965 5.25 1.25 5.80964 1.25 6.5C1.25 7.19036 1.80965 7.75 2.5 7.75Z" fill="#C4C4C4"/>
</svg>
